<?xml version="1.0" standalone="no"?><!DOCTYPE svg PUBLIC "-//W3C//DTD SVG 1.1//EN" "http://www.w3.org/Graphics/SVG/1.1/DTD/svg11.dtd"><svg t="1580826865973" class="icon" viewBox="0 0 1024 1024" version="1.1" xmlns="http://www.w3.org/2000/svg" p-id="1961" xmlns:xlink="http://www.w3.org/1999/xlink" width="64" height="64"><defs><style type="text/css"></style></defs><path d="M642.3 289.4l-412 0.1c-45.1 0-81.6 36.6-81.6 81.7v223.4h0.5c29.3 0 53 23.7 53 53s-23.7 53-53 53h-0.5v82.5c0 45.1 36.6 81.6 81.7 81.6l412-0.1c45.1 0 81.6-36.6 81.6-81.7l-0.1-412c0-45-36.5-81.5-81.6-81.5z" fill="#FF7F00" p-id="1962"></path><path d="M357.6 159.4l432-0.1c47.3 0 85.6 38.3 85.6 85.6l0.1 432c0 47.3-38.3 85.6-85.6 85.6l-432 0.1c-47.3 0-85.6-38.3-85.6-85.6l-0.1-432c0-47.3 38.4-85.6 85.6-85.6z" fill="#FFDA00" p-id="1963"></path><path d="M562.1 623.8h299.4" fill="#FFFFFF" p-id="1964"></path><path d="M899.3 244.9c0-60.4-49.2-109.6-109.6-109.6l-432 0.1C297.2 135.4 248 184.6 248 245v20.4h-17.7c-58.3 0-105.7 47.4-105.6 105.7v223.4c0 6.4 2.6 12.6 7.1 17.1 4.6 4.5 10.7 7 17.1 6.9h0.5c7.7 0.1 14.8 3.1 20.3 8.5 5.5 5.5 8.5 12.8 8.5 20.5 0 15.9-12.9 28.9-28.8 29h-0.5c-6.4-0.1-12.6 2.4-17.2 6.9s-7.1 10.7-7.1 17.1V783c0 58.3 47.4 105.6 105.7 105.6l412-0.1c28.2 0 54.8-11 74.7-31 19.1-19.1 30-44.3 30.9-71.2h41.8c29.3 0 56.8-11.4 77.5-32.1 20.7-20.7 32.1-48.2 32.1-77.5V244.9zM683.1 823.8c-10.9 10.9-25.4 16.9-40.8 16.9l-412 0.1c-15.4 0-29.9-6-40.8-16.9-10.9-10.9-16.9-25.4-16.9-40.8v-62.2c31-10 53.5-39.1 53.5-73.4 0-20.6-8-39.9-22.6-54.5-8.8-8.8-19.4-15.2-31-18.9v-203c0-31.8 25.9-57.7 57.7-57.7h17.7L248 677c0 29.3 11.4 56.8 32.1 77.5 20.7 20.7 48.2 32.1 77.5 32.1l342.2-0.1c-0.7 14.1-6.6 27.2-16.7 37.3z m150.2-103.3c-11.6 11.6-27.1 18.1-43.6 18.1H700l-342.3 0.1c-16.5 0-31.9-6.4-43.6-18-11.6-11.6-18.1-27.1-18.1-43.6l-0.1-363.6V245c0-34 27.6-61.6 61.6-61.6l432-0.1c34 0 61.6 27.6 61.6 61.6l0.1 354.9H561.9c-13.3 0-24 10.7-24 24s10.7 24 24 24h289.3v29.1c0.1 16.4-6.3 31.9-17.9 43.6z" fill="#301207" p-id="1965"></path><path d="M420.7 229.5c-43.3 0-78.5 35.2-78.5 78.5 0 13.3 10.7 24 24 24s24-10.7 24-24c0-16.8 13.7-30.5 30.5-30.5 13.3 0 24-10.7 24-24s-10.8-24-24-24zM366.2 366.9c-13.3 0-24 10.7-24 24V556c0 13.3 10.7 24 24 24s24-10.7 24-24V390.9c0-13.3-10.8-24-24-24zM747.6 310.3c13.3 0 24-10.7 24-24v-32.8c0-13.3-10.7-24-24-24s-24 10.7-24 24v32.8c0 13.3 10.7 24 24 24zM561.5 450.4c13.3 0 24-10.7 24-24v-32.8c0-13.3-10.7-24-24-24s-24 10.7-24 24v32.8c0 13.3 10.7 24 24 24zM712.3 501.7c13.3 0 24-10.7 24-24v-32.8c0-13.3-10.7-24-24-24s-24 10.7-24 24v32.8c0 13.3 10.8 24 24 24z" fill="#301207" p-id="1966"></path></svg>