<?xml version="1.0" standalone="no"?><!DOCTYPE svg PUBLIC "-//W3C//DTD SVG 1.1//EN" "http://www.w3.org/Graphics/SVG/1.1/DTD/svg11.dtd"><svg t="1580827527194" class="icon" viewBox="0 0 1024 1024" version="1.1" xmlns="http://www.w3.org/2000/svg" p-id="2388" xmlns:xlink="http://www.w3.org/1999/xlink" width="64" height="64"><defs><style type="text/css"></style></defs><path d="M858.9 174.4c-58.1 15.8-249.2-81.1-352.9 22.5-43.3 43.3-28.7 97.8-80.3 149.4-36.5 36.5-96.5 34.7-148.9 50.7 6.4 8.8 10.2 19.7 10.2 31.5 0 29.5-24 53.5-53.5 53.5-17.4 0-32.8-8.3-42.6-21.1C107.2 572.3 115.8 731 209 824.2c102.1 102.1 282.7 102.7 393.8-8.3 57.6-57.6 22.1-146.4 84.1-208.3 61.9-61.9 106.2-37.1 149.4-80.3C940 423.6 912 227.8 858.9 174.4z" fill="#FFDA00" p-id="2389"></path><path d="M627.305061 433.327852a56.8 98.3 44.999 1 0 139.014766-139.01962 56.8 98.3 44.999 1 0-139.014766 139.01962Z" fill="#FF7F00" p-id="2390"></path><path d="M324.535685 724.022863a106 144.4 44.999 1 0 204.208874-204.216003 106 144.4 44.999 1 0-204.208874 204.216003Z" fill="#FF7F00" p-id="2391"></path><path d="M930.4 331.8c-0.7-73.3-22.1-141.7-54.5-174.3-6.1-6.1-15-8.5-23.3-6.2-13.1 3.6-46.3-3.1-78.3-9.5-41-8.2-91.9-18.5-141.4-17.2-60.9 1.5-108 19.7-143.8 55.5-24.8 24.8-33.4 51.7-41.8 77.8-8 25.1-15.6 48.7-38.5 71.6-19.9 19.9-52.2 26.1-86.4 32.6-17.3 3.3-35.1 6.7-52.6 12.1-7.4 2.3-13.3 8-15.8 15.3-2.5 7.4-1.2 15.5 3.4 21.7 3.7 5.1 5.6 11.1 5.6 17.3 0 16.3-13.2 29.5-29.5 29.5-9.3 0-17.8-4.2-23.5-11.6-4.5-6-11.6-9.4-19.1-9.4h-0.1c-7.5 0-14.6 3.6-19.1 9.6-43.8 58.3-65.8 130.8-62.1 204.1 3.8 73.5 33 141.2 82.4 190.6 27.4 27.4 60.2 48.5 97.4 62.8 34.6 13.3 71.3 20 109.2 20h4.3c39.7-0.5 78.4-8.4 115-23.4 38.3-15.7 72.6-38.5 101.9-67.7 33.7-33.7 40.7-76.2 46.8-113.6 5.8-35.3 11.2-68.6 37.3-94.7 29.3-29.3 52.8-35.9 77.6-42.8 23.4-6.6 47.6-13.4 71.8-37.5 68.3-68.4 77.6-162.6 77.1-212.6z m-111 178.5c-15.3 15.3-30.2 19.4-50.8 25.2-26.9 7.5-60.5 16.9-98.6 55.1-37 37-44.3 81.6-50.7 120.9-5.7 34.7-10.6 64.6-33.4 87.4-48.8 48.8-114 76.1-183.6 77.1-33.3 0.5-65.5-5.2-95.6-16.8-30.9-11.9-58-29.3-80.6-52-41-41-65.3-97.5-68.4-159.1-2.7-53.6 10.7-106.6 38.3-151.8 11.3 6.3 24.2 9.7 37.6 9.7 42.7 0 77.5-34.8 77.5-77.5 0-5.1-0.5-10.1-1.4-15 7.3-1.5 14.6-2.9 21.8-4.3 39.8-7.6 80.9-15.5 111.3-45.8 31.1-31.1 41.3-62.9 50.3-90.9 7.2-22.5 13.5-42 30-58.6 26.7-26.7 63-40.3 111.1-41.5 44.1-1.1 90.1 8.1 130.8 16.3 33.9 6.8 62.1 12.5 84.3 11.2 21.3 29.9 32.8 86.9 33.3 132.2 0.3 42.7-7.4 122.4-63.2 178.2z" fill="#301207" p-id="2392"></path><path d="M504.2 407.5c6.1 0 12.3-2.3 17-7 28.5-28.5 37.8-57.4 46-83 1.9-6 3.8-11.8 5.8-17.3 4.6-12.4-1.8-26.2-14.2-30.8-12.4-4.6-26.2 1.8-30.8 14.2-2.4 6.4-4.4 12.9-6.5 19.2-7.2 22.3-13.9 43.4-34.2 63.7-9.4 9.4-9.4 24.6 0 33.9 4.7 4.7 10.8 7.1 16.9 7.1zM609 252.8c10.8-7.6 13.5-22.6 5.9-33.4-7.6-10.8-22.6-13.5-33.4-5.9-4.5 3.2-8.9 6.6-13.1 10.3-10 8.7-11.1 23.8-2.4 33.9 4.7 5.5 11.4 8.3 18.1 8.3 5.6 0 11.2-1.9 15.7-5.9 2.9-2.7 6-5.1 9.2-7.3zM711.4 263c-24.7 6.6-50.2 22.1-71.7 43.6s-37 47-43.6 71.7c-7.7 28.9-2.5 55.1 14.3 71.9 11.7 11.7 28 17.8 46.5 17.8 8.1 0 16.6-1.2 25.4-3.5 24.7-6.6 50.2-22.1 71.7-43.6s37-47 43.6-71.7c7.7-28.9 2.5-55.1-14.3-71.9-16.8-16.8-43-22-71.9-14.3z m39.8 73.9c-4.4 16.5-15.8 34.7-31.2 50.2-15.4 15.4-33.7 26.8-50.2 31.2-11.6 3.1-21.4 2.4-25.6-1.8-9.2-9.2-2.3-44.2 29.3-75.8 23.2-23.2 48.1-33.1 63.4-33.1 5.6 0 9.9 1.3 12.3 3.8 4.4 4.1 5.1 13.9 2 25.5zM442.2 472.9c-38.5 5.9-76.6 26.1-107.5 57-30.9 30.9-51.1 69-57 107.5-6.3 41.2 4.3 78 29.8 103.5 20.7 20.7 48.8 31.6 80.7 31.6 7.4 0 15-0.6 22.8-1.8 38.5-5.9 76.6-26.1 107.5-57 30.9-30.9 51.1-69 57-107.5 6.3-41.2-4.3-78-29.8-103.5s-62.3-36.1-103.5-29.8zM528.1 599c-4.4 28.4-19.8 57.1-43.5 80.8-23.7 23.7-52.4 39.1-80.8 43.5-25.7 3.9-47.8-1.9-62.3-16.3-14.5-14.5-20.3-36.6-16.3-62.3 4.4-28.4 19.8-57.1 43.5-80.8 23.7-23.7 52.4-39.1 80.8-43.5 5.3-0.8 10.4-1.2 15.3-1.2 19.1 0 35.5 6 47 17.5 14.5 14.5 20.3 36.6 16.3 62.3z" fill="#301207" p-id="2393"></path></svg>