<?xml version="1.0" standalone="no"?><!DOCTYPE svg PUBLIC "-//W3C//DTD SVG 1.1//EN" "http://www.w3.org/Graphics/SVG/1.1/DTD/svg11.dtd"><svg t="1580827488218" class="icon" viewBox="0 0 1024 1024" version="1.1" xmlns="http://www.w3.org/2000/svg" p-id="2103" xmlns:xlink="http://www.w3.org/1999/xlink" width="64" height="64"><defs><style type="text/css"></style></defs><path d="M568.8 274.3l-26.6-6.1c-11-2.5-18.9-12.3-19.1-23.6l-0.5-33c-0.3-16 14.5-28 30.1-24.4l42 9.6c15.6 3.6 23.7 20.8 16.5 35.1l-14.8 29.4c-5.2 10.1-16.6 15.5-27.6 13zM162.2 709.4l14.3 23.3c5.9 9.6 4.5 22.1-3.4 30.2L150 786.3c-11.2 11.4-30.1 9.3-38.5-4.3l-22.6-36.7c-8.4-13.6-1.8-31.5 13.4-36.4l31.4-10.1c10.8-3.4 22.6 0.9 28.5 10.6z" fill="#FFDA00" p-id="2104"></path><path d="M518.1 266.8c-38.6 3.5-69.3 33.7-73.8 72.3-7 60.5-31.4 117.8-71.3 165.7-22 26.4-47.7 48.7-76 66.4 3.8 7.3 5.9 15.6 5.9 24.4 0 29.5-24 53.5-53.5 53.5-22.3 0-41.4-13.7-49.4-33.1-23.6 16.4-37.5 44.6-34.8 74.5 4.7 51.6 55.6 85.9 105.2 70.8 29.5-9 58.1-20.9 85.6-35.6 54.7-29.3 102.7-68.4 142.6-116.2 39.9-47.9 69.7-102.1 88.5-161.2 9.5-29.7 16-60 19.5-90.6 6.1-51.7-36.8-95.6-88.5-90.9z" fill="#FF7F00" p-id="2105"></path><path d="M349 743.2c0-46.1 32.4-85.6 77.5-95 70.8-14.8 135.9-49.8 188.3-102.1 52.4-52.4 87.4-117.4 102.1-188.3 9.4-45.1 49-77.5 95-77.5 61.5 0 107.6 56.5 95 116.8-7.5 35.9-18.5 71-32.9 105.1C845.4 570 804.3 631 752 683.3c-52.3 52.3-113.3 93.4-181.1 122.1-34.1 14.4-69.2 25.4-105.1 32.9-60.2 12.5-116.8-33.5-116.8-95.1z" fill="#FF7F00" p-id="2106"></path><path d="M871 294.6l-30.9-10.1c-12.8-4.2-21.1-16.5-20.1-30l2.9-39c1.4-18.9 20.2-31.5 38.2-25.6l48.6 15.9c18 5.9 25.8 27.1 15.7 43.2l-20.7 33.2c-6.9 11.5-20.9 16.6-33.7 12.4zM343.3 765.3l14.5 29.1c6 12.1 3 26.6-7.3 35.3L320.6 855c-14.5 12.3-36.6 7.7-45.1-9.3l-22.8-45.8c-8.4-17 1.3-37.4 19.8-41.5l38.2-8.6c13.2-2.9 26.6 3.5 32.6 15.5z" fill="#FFDA00" p-id="2107"></path><path d="M512.4 413.6c1.4 0.3 2.8 0.4 4.2 0.4 11.4 0 21.5-8.2 23.6-19.8 1.2-6.7 2.2-13.6 3-20.4 1.5-13.2-7.9-25.1-21.1-26.6-13.2-1.5-25.1 7.9-26.6 21.1-0.7 5.9-1.5 11.8-2.6 17.5-2.3 13.1 6.4 25.5 19.5 27.8zM432.7 555.2c4.5 3.7 9.9 5.6 15.3 5.6 6.9 0 13.7-2.9 18.5-8.6 21.6-26 39.2-54.7 52.2-85.5 5.2-12.2-0.5-26.3-12.7-31.5-12.2-5.2-26.3 0.5-31.5 12.7-11.2 26.4-26.3 51.1-44.9 73.5-8.4 10.2-7 25.3 3.1 33.8z" fill="#301207" p-id="2108"></path><path d="M925.3 294.9l20.7-33.2c8.7-14 10.5-30.9 4.8-46.3-5.6-15.5-17.8-27.3-33.5-32.4l-48.6-15.9c-15.7-5.1-32.5-2.8-46.2 6.4-13.7 9.2-22.2 23.8-23.5 40.3l-2.9 39c-0.1 1.5-0.2 3.1-0.1 4.6-22.1 3-43.1 12-60.5 26.2-21.5 17.5-36.4 42.2-42.1 69.4-13.9 66.6-47 127.5-95.6 176.2-10.9 10.9-22.4 21-34.5 30.3 19.5-32.7 35.1-67.5 46.8-104 9.9-31 16.8-63.1 20.5-95.2 3.2-27.5-4.5-54.7-21.1-76.4 3.2-3.4 6-7.3 8.2-11.7l14.8-29.4c6.8-13.4 7-29 0.5-42.6-6.4-13.6-18.5-23.3-33.1-26.7l-42-9.6c-14.7-3.4-29.8 0.2-41.5 9.6-11.7 9.5-18.2 23.5-18 38.6l0.5 33v0.9c-17.8 4.6-34.2 13.8-47.4 26.8-17.3 17-28.3 39.6-31.1 63.6-6.5 56.2-29.2 109.1-65.9 153.1-20.2 24.2-43.8 44.9-70.2 61.3-10.6 6.6-14.4 20.2-8.7 31.3 2.2 4.2 3.2 8.7 3.2 13.4 0 16.3-13.2 29.5-29.5 29.5-12 0-22.7-7.2-27.3-18.2-2.8-6.7-8.5-11.8-15.4-13.8-7-2.1-14.5-0.8-20.5 3.3-25.9 18-42.2 46.6-45 77.4-5 0-10.1 0.7-15 2.3L95 686.1c-14.3 4.6-25.5 15.3-30.7 29.4-5.2 14.1-3.7 29.6 4.2 42.4l22.6 36.7c7.9 12.8 21 21.1 35.9 22.8 1.8 0.2 3.7 0.3 5.5 0.3 13 0 25.3-5.1 34.6-14.5l23.1-23.5c1.5-1.5 2.9-3.1 4.1-4.8 9.9 5.6 20.4 9.6 31.3 11.8 0 8.2 1.8 16.4 5.6 23.9l22.8 45.8c7.3 14.7 20.8 25.1 36.9 28.4 3.6 0.8 7.3 1.1 10.9 1.1 12.5 0 24.5-4.4 34.3-12.6L366 848c2.8-2.4 5.4-5 7.6-7.9 21.1 15.8 46.4 24.1 72.3 24.1 8.3 0 16.6-0.9 24.8-2.6 37.3-7.8 74.2-19.3 109.5-34.3C651 797.6 714.5 754.8 769 700.2c54.5-54.5 97.3-118 127.2-188.8 15-35.4 26.5-72.2 34.3-109.5 6.8-32.4 0.1-65.6-18.4-92.6 5.1-3.8 9.7-8.7 13.2-14.4zM156 746l-23.1 23.5c-0.1 0.1-0.2 0.2-0.5 0.2s-0.4-0.1-0.5-0.3l-22.6-36.7c-0.1-0.1-0.2-0.2 0-0.5 0.1-0.3 0.2-0.3 0.4-0.4l31.4-10.1h0.2c0.2 0 0.4 0.1 0.5 0.3l14.3 23.3c0.2 0.2 0.1 0.5-0.1 0.7z m390.7-535.3c0.2-0.1 0.3-0.1 0.4-0.1h0.2l42 9.6c0.1 0 0.3 0.1 0.4 0.3 0.1 0.3 0.1 0.4 0 0.5l-14.8 29.4c-0.1 0.3-0.4 0.4-0.7 0.3l-21-4.8c-2-0.5-3.9-1-5.9-1.4-0.1-0.1-0.2-0.3-0.2-0.5l-0.5-33c-0.1 0-0.1-0.1 0.1-0.3zM214.5 730.9c-14.5-9.7-23.7-25.3-25.3-42.7-1.1-12.5 1.9-24.8 8.2-35.3 14 12.7 32.4 20 52.1 20 42.7 0 77.5-34.8 77.5-77.5 0-4.9-0.5-9.8-1.4-14.5 24.4-17.2 46.6-37.6 65.9-60.9 42.6-51.2 69.1-112.8 76.7-178.3 3.1-27.1 25-48.6 52.1-51.1 1.8-0.2 3.5-0.2 5.2-0.2 3.6 0 7.1 0.3 10.6 1 0.2 0 0.4 0.1 0.6 0.1l3.9 0.9c9.8 2.7 18.8 7.9 26.2 15.4 12.2 12.5 18 29.6 16 46.9-3.3 29-9.6 58-18.6 86.1C546.3 497 518 548.5 480.1 594c-5.5 6.6-11.2 13.1-17 19.3-13.6 4.6-27.5 8.5-41.6 11.4-27.2 5.7-51.8 20.6-69.3 42.1-11 13.4-18.8 29-23.2 45.6-1.2 4.4-2.1 8.9-2.8 13.5-6.7-1.2-13.8-1.1-20.8 0.5l-20.2 4.5-18 4c-5.1 1.1-9.9 3-14.3 5.4-13.4 1.6-26.9-1.7-38.4-9.4zM335 811.4l-29.9 25.3c-1.6 1.4-3.3 1.4-4.4 1.1-1.1-0.2-2.7-0.9-3.6-2.8l-22.8-45.8c-0.8-1.6-0.6-3.1-0.2-4.1 0.1-0.2 0.1-0.3 0.2-0.5 0.5-1 1.5-2.4 3.6-2.9l20.9-4.7 17.3-3.9c0.4-0.1 0.8-0.1 1.2-0.1 2 0 3.8 1.1 4.7 2.9l14.5 29.1c0.9 2.2 0.3 4.9-1.5 6.4z m548.5-419.2c-7.1 34.3-17.7 68.1-31.5 100.6-27.5 65-66.9 123.4-117 173.5-50.1 50.1-108.5 89.5-173.5 117-32.5 13.8-66.4 24.3-100.6 31.5-21.6 4.5-43.8-0.9-60.9-14.8-17-13.8-26.8-34.3-27-56.2v-0.5c0-34.4 24.6-64.5 58.4-71.5 13.8-2.9 27.5-6.5 40.8-10.8 0.6 2.8 1.4 5.8 2.4 8.9 6 18.8 19.3 42.3 48.4 59.5 3.8 2.3 8 3.3 12.2 3.3 8.2 0 16.2-4.2 20.7-11.8 6.7-11.4 2.9-26.1-8.5-32.9-12.5-7.4-21.2-17.4-26-29.7-2.6-6.6-3.3-12.2-3.6-15.2 34-15.9 65.8-36.6 94.5-61.7 10.8 17 29.8 37.9 61.4 50.4 2.9 1.1 5.9 1.7 8.8 1.7 9.6 0 18.6-5.8 22.3-15.2 4.9-12.3-1.2-26.3-13.5-31.1-27.3-10.8-39.4-31.2-43.7-40.8 27-30.3 49.1-64.1 65.7-100.5 14.9 11.6 35.6 23.9 62.6 30.7 2 0.5 4 0.8 6 0.8 10.7 0 20.5-7.2 23.2-18.1 3.3-12.8-4.5-25.9-17.3-29.2-28.5-7.3-47-22.5-56.3-32.1 3.5-11.5 6.5-23.3 9-35.1 7-33.8 37.1-58.4 71.5-58.4 6.8 0 13.5 0.9 19.9 2.7l0.9 0.3 5.2 1.7c11.9 4.5 22.5 12.1 30.7 22.2 13.9 17 19.3 39.2 14.8 60.8z m21.7-155.9l-20.7 33.2c-1.3 2-3.8 3-6.1 2.2l-24.3-8c-2.4-0.9-4.8-1.7-7.2-2.4-1.9-0.9-3.1-2.9-3-5.1l2.9-39c0.2-2.1 1.3-3.3 2.3-4 0.7-0.5 1.7-0.9 2.9-0.9 0.5 0 1.1 0.1 1.7 0.3l48.6 15.9c2 0.6 2.9 2.1 3.3 3.2 0.5 1.2 0.7 2.8-0.4 4.6z" fill="#301207" p-id="2109"></path></svg>