<?xml version="1.0" standalone="no"?><!DOCTYPE svg PUBLIC "-//W3C//DTD SVG 1.1//EN" "http://www.w3.org/Graphics/SVG/1.1/DTD/svg11.dtd"><svg t="1580822747524" class="icon" viewBox="0 0 1024 1024" version="1.1" xmlns="http://www.w3.org/2000/svg" p-id="1771" width="64" height="64" xmlns:xlink="http://www.w3.org/1999/xlink"><defs><style type="text/css"></style></defs><path d="M671.1 133.2l-33.9-59.4-226 226c10.3 9.5 16.7 23.1 16.7 38.2 0 28.7-23.3 52-52 52-15.1 0-28.7-6.4-38.2-16.7L72.1 638.8l72.8 27.6 27.6 72.8 565-565-66.4-41z" fill="#FFDA00" p-id="1772"></path><path d="M654.1 226.8l34 59.4 66.4 41-564.9 565-27.6-72.8-72.9-27.6z" fill="#FF7F00" p-id="1773"></path><path d="M851.4 347.5l35.4 58 65.1 42.4-502.3 502.3-30.1-70.3-70.3-30.1z" fill="#FFDA00" p-id="1774"></path><path d="M778.4 324.4c-0.8-7.3-5-13.8-11.2-17.6L705.9 269l-10.6-18.6 59.2-59.2c5.2-5.2 7.7-12.5 6.9-19.8-0.9-7.3-5-13.8-11.2-17.6L688.9 116 658 61.9c-3.7-6.5-10.2-10.9-17.7-11.9-7.4-1-14.9 1.5-20.1 6.8l-226 226c-4.6 4.6-7.2 10.9-7 17.4 0.1 6.5 2.9 12.7 7.7 17.1 5.8 5.4 9 12.7 9 20.6 0 15.4-12.6 28-28 28-7.9 0-15.2-3.2-20.6-9-4.4-4.8-10.6-7.6-17.2-7.7-6.5-0.1-12.8 2.4-17.5 7L55.2 621.8c-5.8 5.8-8.2 14.1-6.5 22 1.7 8 7.3 14.5 15 17.4l62.7 23.7 9.8 25.9-64 64c-5.8 5.8-8.2 14-6.5 22 1.7 8 7.3 14.5 15 17.4l62.7 23.7 23.7 62.7c2.9 7.6 9.4 13.2 17.4 15 1.7 0.4 3.4 0.5 5 0.5 6.3 0 12.4-2.5 17-7l565-565c5.2-5.1 7.7-12.4 6.9-19.7z m-663 305.1L339.9 405c11 5.9 23.3 9.1 35.9 9.1 41.9 0 76-34.1 76-76 0-12.6-3.2-25-9-35.9L631.9 113l11.6 20.3-12.6 12.6c-9.4 9.4-9.4 24.6 0 33.9 4.7 4.7 10.8 7 17 7s12.3-2.3 17-7l13.8-13.8 20.5 12.7-29.6 29.7c-3.4-2.8-7.6-4.7-12.2-5.3-7.4-1-14.9 1.5-20.1 6.8L173.4 673.6l-6-15.7c-2.4-6.4-7.5-11.5-13.9-14l-38.1-14.4zM198.9 849l-14.4-38.1c-2.4-6.4-7.5-11.5-13.9-13.9l-38.1-14.4L648.9 266l11.2 19.6 0.3 0.5-58.3 58.3c-9.4 9.4-9.4 24.6 0 33.9 4.7 4.7 10.8 7 17 7s12.3-2.3 17-7l59.4-59.4 20.7 12.8L198.9 849zM975.7 445.4c-0.7-7.2-4.7-13.7-10.8-17.6l-60.5-39.5-32.5-53.3c-3.8-6.3-10.3-10.5-17.6-11.3-7.3-0.9-14.6 1.7-19.8 6.9L332.2 832.8c-5.6 5.6-8.1 13.7-6.6 21.5 1.5 7.8 6.8 14.4 14.1 17.5l61.5 26.3 26.3 61.5c3.1 7.3 9.7 12.6 17.5 14.1 1.5 0.3 3 0.4 4.5 0.4 6.3 0 12.4-2.5 17-7l502.3-502.3c5.1-5 7.7-12.2 6.9-19.4z m-518 462.7l-7.8-18.2 66.4-66.4c9.4-9.4 9.4-24.6 0-33.9-9.4-9.4-24.6-9.4-33.9 0l-63.8 63.8-27.3-11.7 455.6-455.6 12.6 20.6-54.5 54.4c-9.4 9.4-9.4 24.6 0 33.9 4.7 4.7 10.8 7 17 7s12.3-2.3 17-7l55.7-55.7 19.3 12.6-456.3 456.2z" fill="#301207" p-id="1775"></path><path d="M443.4 504.5L365.9 582c-9.4 9.4-9.4 24.6 0 33.9 4.7 4.7 10.8 7 17 7s12.3-2.3 17-7l77.4-77.4c9.4-9.4 9.4-24.6 0-33.9-9.4-9.4-24.6-9.4-33.9-0.1z" fill="#301207" p-id="1776"></path></svg>