<?xml version="1.0" standalone="no"?><!DOCTYPE svg PUBLIC "-//W3C//DTD SVG 1.1//EN" "http://www.w3.org/Graphics/SVG/1.1/DTD/svg11.dtd"><svg t="1580827500249" class="icon" viewBox="0 0 1024 1024" version="1.1" xmlns="http://www.w3.org/2000/svg" p-id="2246" xmlns:xlink="http://www.w3.org/1999/xlink" width="64" height="64"><defs><style type="text/css"></style></defs><path d="M640 300l68-72s-31-62-9-84 71-52 94-35 44 52 44 52 80 22 81 41 0 99-18 112-116 14-128 13-59.8 62.9-59.8 62.9L640 300z" fill="#FFDA00" p-id="2247"></path><path d="M677.4 344.1c-112-112-351.4-90.6-493.2 51.1 11.7 9.5 19.2 24.1 19.2 40.4 0 28.7-23.3 52-52 52-10.4 0-20.2-3.1-28.3-8.4-56.9 118.5-2.8 241.2 87.6 331.6 23.1 23.1 48.3 43.8 75.1 61 102.8 65.9 227.9 78.1 340.4-34.4C768 695.7 789.4 456.1 677.4 344.1z" fill="#FF7F00" p-id="2248"></path><path d="M436.5 603.5m-132.5 0a132.5 132.5 0 1 0 265 0 132.5 132.5 0 1 0-265 0Z" fill="#FFDA00" p-id="2249"></path><path d="M914.6 169.8c-17.8-17.8-41.2-29.2-65.9-32.6-4.9-11.3-11.8-21.6-20.6-30.3-18.5-18.5-43.1-28.7-69.3-28.7-26.2 0-50.8 10.2-69.3 28.7-34.2 34.2-37.8 87.6-10.8 125.8l-48.6 48.6c-53.5-26.7-119.6-37.7-190.5-30.7-102.1 10.1-201.4 56.6-272.4 127.6-4.8 4.8-7.3 11.4-7 18.2 0.4 6.8 3.6 13.1 8.8 17.4 6.6 5.3 10.4 13.3 10.4 21.7 0 15.4-12.6 28-28 28-5.4 0-10.7-1.6-15.2-4.5-5.8-3.8-12.9-4.9-19.6-3-6.6 1.9-12.2 6.5-15.2 12.7C86.3 500.1 77.8 533.2 76 567c-1.6 31.4 2.6 63.5 12.7 95.6 17.8 57.2 54.1 114.2 105 165.1 25 25 51.6 46.6 79.1 64.2 28.3 18.2 57.5 31.9 86.6 40.9 27.5 8.5 55 12.8 82.1 12.8 4 0 8-0.1 12-0.3 68.7-3.3 132.5-33.9 189.7-91.1 71-71 117.6-170.3 127.7-272.4 7-71-4-137.1-30.7-190.6l39.3-39.3c18.1 9.7 38.7 14.4 59.6 13.4 28.5-1.4 55.4-13.2 75.6-33.5 21.7-21.7 33.6-50.5 33.6-81.1-0.1-30.4-12-59.2-33.7-80.9zM723.1 577.2c-9 91.2-50.5 179.9-113.8 243.2-48.5 48.5-101.6 74.4-158 77.1-3.3 0.1-6.6 0.2-10 0.2-46.8 0-94.6-15.5-142.5-46.2-24.6-15.7-48.5-35.2-71-57.7-45.4-45.4-77.6-95.7-93.1-145.4-14.9-47.9-14.4-94.3 1.5-138.3 5 1 10.1 1.5 15.3 1.5 41.9 0 76-34.1 76-76 0-13.7-3.6-26.9-10.4-38.4 61.8-54.8 143.4-90.5 227.3-98.8 55.4-5.5 106.9 1.4 149.6 19.1 25.7 10.7 48.2 25.3 66.5 43.6s32.9 40.8 43.6 66.5c17.7 42.7 24.5 94.2 19 149.6z m157.6-279.1c-24.3 24.3-62.6 26.3-89.2 4.6-9.5-7.8-23.4-7.1-32.1 1.6l-45.2 45.2c-6.1-7.9-12.7-15.4-19.7-22.5-7-7-14.5-13.6-22.5-19.7l57-57c4.8-4.8 7.3-11.4 7-18.2-0.3-6.8-3.5-13.1-8.8-17.4-1.3-1.1-2.6-2.2-3.7-3.3-19.5-19.5-19.5-51.2 0-70.7 9.4-9.4 22-14.6 35.3-14.6 13.4 0 25.9 5.2 35.3 14.6 6.8 6.8 11.4 15.2 13.5 24.6 2.5 11.2 12.6 19.1 24.1 18.8 18.5-0.5 35.9 6.4 49 19.5 12.6 12.6 19.5 29.3 19.5 47.2 0 18-7 34.7-19.5 47.3z" fill="#301207" p-id="2250"></path><path d="M515.7 384.9c14.6 0.5 28.9 2.1 42.6 4.6 1.5 0.3 3 0.4 4.4 0.4 11.3 0 21.4-8.1 23.6-19.6 2.4-13-6.2-25.6-19.2-28-16.1-3-32.8-4.8-49.7-5.4-13.2-0.5-24.4 9.9-24.8 23.1-0.6 13.3 9.8 24.4 23.1 24.9zM314.5 442.3c4.7 0 9.4-1.4 13.6-4.2 32.8-22.5 72-38.8 113.2-47.1 13-2.6 21.4-15.3 18.8-28.2-2.6-13-15.3-21.4-28.2-18.8-47.5 9.5-92.8 28.4-130.9 54.6-10.9 7.5-13.7 22.4-6.2 33.4 4.5 6.7 12.1 10.3 19.7 10.3zM436.5 447C350.2 447 280 517.2 280 603.5S350.2 760 436.5 760 593 689.8 593 603.5 522.8 447 436.5 447z m0 265C376.7 712 328 663.3 328 603.5S376.7 495 436.5 495 545 543.7 545 603.5 496.3 712 436.5 712z" fill="#301207" p-id="2251"></path></svg>