<?xml version="1.0" standalone="no"?><!DOCTYPE svg PUBLIC "-//W3C//DTD SVG 1.1//EN" "http://www.w3.org/Graphics/SVG/1.1/DTD/svg11.dtd"><svg t="1580827694023" class="icon" viewBox="0 0 1024 1024" version="1.1" xmlns="http://www.w3.org/2000/svg" p-id="2530" xmlns:xlink="http://www.w3.org/1999/xlink" width="64" height="64"><defs><style type="text/css"></style></defs><path d="M517.9 148.8c-133.5 0-249.9 73.2-311.4 181.6 18.2 8.6 30.7 27 30.7 48.4 0 29.5-24 53.5-53.5 53.5-5.3 0-10.5-0.8-15.3-2.2-5.4 24.6-8.2 50.2-8.2 76.4 0 197.5 160.1 357.6 357.6 357.6S875.4 704 875.4 506.5c0.1-197.6-160-357.7-357.5-357.7z" fill="#FF7F00" p-id="2531"></path><path d="M517.9 506.4m-142.3 0a142.3 142.3 0 1 0 284.6 0 142.3 142.3 0 1 0-284.6 0Z" fill="#FFDA00" p-id="2532"></path><path d="M869.5 357.8c-19.2-45.4-46.7-86.3-81.8-121.3-35-35-75.9-62.6-121.3-81.8-47.1-19.9-97-30-148.6-30-68.8 0-136.2 18.5-195 53.5-57.1 34-104.5 82.5-137.3 140.2-3.3 5.8-4 12.7-2 19.1s6.6 11.6 12.6 14.4c10.3 4.9 17 15.3 17 26.7 0 16.3-13.2 29.5-29.5 29.5-2.9 0-5.7-0.4-8.5-1.2-6.4-1.9-13.3-1.1-19.1 2.3-5.8 3.4-9.8 9-11.3 15.6-5.8 26.6-8.7 54-8.7 81.5 0 51.5 10.1 101.5 30 148.6 16.1 38 37.9 72.7 65.1 103.5l-99.8 99.8c-9.4 9.4-9.4 24.6 0 33.9 4.7 4.7 10.8 7 17 7 6.1 0 12.3-2.3 17-7l99.8-99.8c31 27.4 65.9 49.5 104.1 65.6 47.1 19.9 97 30 148.6 30s101.5-10.1 148.6-30c45.4-19.2 86.3-46.7 121.3-81.8 35-35 62.6-75.9 81.8-121.3 19.9-47.1 30-97 30-148.6 0-51.3-10.1-101.3-30-148.4zM753.8 742.3c-63 63-146.8 97.7-235.9 97.7S345 805.3 282 742.3s-97.7-146.8-97.7-235.9c0-16.9 1.3-33.7 3.8-50.3 40.8-2.2 73.2-36.1 73.2-77.4 0-20.8-8.5-40.5-22.7-54.8 27.8-42.5 65.2-78.4 109-104.5 51.4-30.6 110.3-46.8 170.4-46.8 89.1 0 172.9 34.7 235.9 97.7s97.7 146.8 97.7 235.9c-0.1 89.3-34.8 173.1-97.8 236.1z" fill="#301207" p-id="2533"></path><path d="M684.2 506.4c0-91.7-74.6-166.3-166.3-166.3s-166.3 74.6-166.3 166.3c0 91.7 74.6 166.3 166.3 166.3s166.3-74.6 166.3-166.3z m-284.7 0c0-65.3 53.1-118.3 118.3-118.3s118.3 53.1 118.3 118.3S583 624.7 517.8 624.7s-118.3-53-118.3-118.3zM445.7 296c12.5-4.3 19.2-18 14.9-30.5-4.3-12.5-18-19.2-30.5-14.9-52.8 18.1-98.2 51.7-131.1 97.1-7.8 10.7-5.4 25.7 5.3 33.5 4.3 3.1 9.2 4.6 14.1 4.6 7.4 0 14.7-3.4 19.4-9.9 27.2-37.3 64.5-65 107.9-79.9zM737.6 540.9c-8.1 51.8-34.5 99.4-74.4 133.9-40.3 34.8-91.9 54-145.3 54-13.3 0-24 10.7-24 24s10.7 24 24 24c64.9 0 127.6-23.3 176.7-65.7 48.5-41.9 80.6-99.8 90.4-162.8 2-13.1-6.9-25.4-20-27.4-13.1-2.1-25.4 6.9-27.4 20zM517.9 284.1c14.1 0 28.3 1.3 42 4 1.5 0.3 3 0.4 4.5 0.4 11.3 0 21.3-8 23.5-19.5 2.5-13-6-25.6-19.1-28.1-16.7-3.2-33.9-4.8-51-4.8-13.3 0-24 10.7-24 24s10.8 24 24.1 24z" fill="#301207" p-id="2534"></path></svg>